<?xml version="1.0" encoding="iso-8859-1"?>
<!-- Generator: Adobe Illustrator 19.0.0, SVG Export Plug-In . SVG Version: 6.00 Build 0)  -->
<svg version="1.1" id="logo" xmlns="http://www.w3.org/2000/svg" xmlns:xlink="http://www.w3.org/1999/xlink" x="0px" y="0px"
	 viewBox="0 0 208.651 60" style="enable-background:new 0 0 208.651 60;" xml:space="preserve">
<g id="jobby">
	<path id="eye-outside" style="fill:#FFFFFF;" d="M31.5,55c-3.801,0-7.321-0.603-10.561-1.808c-3.239-1.205-6.042-2.899-8.409-5.082
		c-2.366-2.183-4.213-4.809-5.54-7.879C5.663,37.162,5,33.763,5,30.034c0-3.729,0.663-7.134,1.99-10.215
		c1.327-3.081,3.174-5.719,5.54-7.913c2.368-2.195,5.17-3.894,8.409-5.099S27.699,5,31.5,5c3.801,0,7.321,0.602,10.561,1.807
		c3.239,1.205,6.042,2.905,8.409,5.099c2.367,2.194,4.213,4.831,5.54,7.913C57.337,22.9,58,26.305,58,30.034
		c0,3.729-0.669,7.128-2.008,10.198c-1.339,3.069-3.186,5.696-5.54,7.879c-2.355,2.183-5.152,3.877-8.391,5.082
		C38.821,54.397,35.301,55,31.5,55z"/>
	<ellipse id="eye-inside" style="fill:#282828;" cx="31" cy="30" rx="8" ry="7"/>
	<circle id="shiny-dot" style="fill:#FFFFFF;" cx="35" cy="28" r="2"/>
	<path id="body" style="fill:#EDBA3B;" d="M31.5,60c-4.518,0-8.703-0.723-12.553-2.169s-7.182-3.478-9.996-6.098
		c-2.812-2.62-5.008-5.771-6.585-9.454C0.789,38.595,0,34.516,0,30.041c0-4.475,0.789-8.561,2.366-12.258
		c1.577-3.698,3.773-6.863,6.585-9.495c2.814-2.633,6.146-4.673,9.996-6.119S26.982,0,31.5,0c4.519,0,8.702,0.723,12.553,2.169
		c3.85,1.446,7.182,3.486,9.995,6.119c2.814,2.632,5.008,5.798,6.586,9.495C62.211,21.48,63,25.565,63,30.041
		c0,4.475-0.796,8.554-2.387,12.238c-1.592,3.683-3.787,6.835-6.586,9.454c-2.799,2.62-6.124,4.652-9.975,6.098
		C40.202,59.277,36.019,60,31.5,60z M31.5,47.979c3.348,0,6.351-0.413,9.009-1.239c2.659-0.827,4.916-2.013,6.773-3.561
		c1.857-1.548,3.277-3.43,4.262-5.646c0.984-2.217,1.477-4.715,1.477-7.495c0-2.78-0.493-5.286-1.477-7.515
		c-0.985-2.23-2.405-4.125-4.262-5.685c-1.857-1.561-4.115-2.761-6.773-3.6c-2.659-0.839-5.662-1.259-9.009-1.259
		c-3.348,0-6.351,0.419-9.009,1.259c-2.658,0.839-4.91,2.039-6.751,3.6c-1.843,1.56-3.257,3.456-4.241,5.685
		c-0.984,2.229-1.477,4.734-1.477,7.515c0,2.78,0.492,5.278,1.477,7.495c0.984,2.216,2.398,4.098,4.241,5.646
		c1.842,1.548,4.093,2.734,6.751,3.561C25.149,47.566,28.152,47.979,31.5,47.979z"/>
</g>
<g id="jobslib">
	<path id="j" style="fill:#282828;" d="M81.917,14.3h5.742v23.18c0,1.031-0.074,1.918-0.223,2.66s-0.371,1.395-0.668,1.957
		c-0.391,0.75-0.883,1.387-1.477,1.91s-1.266,0.953-2.016,1.289s-1.555,0.578-2.414,0.727s-1.75,0.223-2.672,0.223
		c-0.953,0-1.879-0.078-2.777-0.234s-1.652-0.359-2.262-0.609v-4.898c0.688,0.281,1.422,0.5,2.203,0.656s1.555,0.234,2.32,0.234
		c1.484,0,2.563-0.344,3.234-1.031s1.008-1.703,1.008-3.047V14.3z"/>
	<path id="o" style="fill:#282828;" d="M120.598,29.979c0,2.391-0.34,4.582-1.019,6.574c-0.68,1.992-1.672,3.707-2.977,5.145
		s-2.906,2.555-4.805,3.352s-4.059,1.195-6.48,1.195s-4.582-0.398-6.48-1.195s-3.5-1.914-4.805-3.352s-2.297-3.152-2.977-5.145
		s-1.02-4.184-1.02-6.574s0.34-4.582,1.02-6.574s1.672-3.707,2.977-5.145s2.906-2.555,4.805-3.352s4.059-1.195,6.48-1.195
		s4.582,0.398,6.48,1.195s3.5,1.914,4.805,3.352s2.297,3.152,2.977,5.145C120.258,25.397,120.598,27.589,120.598,29.979z
		 M114.668,29.979c0-1.906-0.234-3.574-0.703-5.004s-1.117-2.621-1.945-3.574s-1.813-1.664-2.953-2.133s-2.391-0.703-3.75-0.703
		s-2.609,0.234-3.75,0.703s-2.125,1.18-2.953,2.133s-1.477,2.145-1.945,3.574s-0.703,3.098-0.703,5.004s0.234,3.574,0.703,5.004
		s1.117,2.617,1.945,3.563s1.813,1.656,2.953,2.133s2.391,0.715,3.75,0.715s2.609-0.238,3.75-0.715s2.125-1.188,2.953-2.133
		s1.477-2.133,1.945-3.563S114.668,31.886,114.668,29.979z"/>
	<path id="b_1_" style="fill:#282828;" d="M145.803,22.644c0,1.359-0.305,2.605-0.914,3.738s-1.617,2.074-3.023,2.824V29.3
		c0.781,0.266,1.496,0.605,2.145,1.02s1.203,0.906,1.664,1.477c0.461,0.57,0.82,1.215,1.078,1.934s0.387,1.523,0.387,2.414
		c0,0.766-0.121,1.586-0.363,2.461s-0.668,1.723-1.277,2.543s-1.422,1.574-2.438,2.262s-2.297,1.234-3.844,1.641
		c-0.391,0.094-0.816,0.18-1.277,0.258s-0.973,0.145-1.535,0.199s-1.188,0.094-1.875,0.117s-1.461,0.035-2.32,0.035h-9.117V14.3
		h10.898c2.328,0,4.203,0.234,5.625,0.703c1.063,0.344,1.984,0.793,2.766,1.348c0.781,0.555,1.426,1.172,1.934,1.852
		s0.883,1.398,1.125,2.156S145.803,21.878,145.803,22.644z M134.014,27.214c1.563,0,2.727-0.156,3.492-0.469
		c0.859-0.359,1.473-0.855,1.84-1.488s0.551-1.348,0.551-2.145c0-0.828-0.211-1.566-0.633-2.215s-1.141-1.129-2.156-1.441
		c-0.422-0.125-0.914-0.215-1.477-0.27s-1.258-0.082-2.086-0.082h-4.711v8.109H134.014z M128.834,32.019v8.836h3.75
		c1,0,1.859-0.027,2.578-0.082s1.336-0.145,1.852-0.27c0.797-0.172,1.461-0.402,1.992-0.691s0.961-0.617,1.289-0.984
		s0.563-0.773,0.703-1.219s0.211-0.918,0.211-1.418c0-0.875-0.242-1.641-0.727-2.297s-1.242-1.148-2.273-1.477
		c-0.453-0.141-0.984-0.242-1.594-0.305s-1.391-0.094-2.344-0.094H128.834z"/>
	<path id="s" style="fill:#282828;" d="M164.82,36.659c0-0.797-0.195-1.441-0.586-1.934s-0.922-0.895-1.594-1.207
		s-1.426-0.566-2.262-0.762s-1.715-0.387-2.637-0.574c-1.219-0.266-2.383-0.582-3.492-0.949s-2.086-0.875-2.93-1.523
		s-1.516-1.473-2.016-2.473s-0.75-2.25-0.75-3.75c0-1.656,0.289-3.098,0.867-4.324s1.363-2.242,2.355-3.047
		c0.992-0.805,2.156-1.406,3.492-1.805s2.84-0.598,4.512-0.598s3.352,0.164,5.039,0.492s3.141,0.75,4.359,1.266v4.922
		c-1.625-0.641-3.184-1.105-4.676-1.395s-2.895-0.434-4.207-0.434c-1.891,0-3.348,0.344-4.371,1.031s-1.535,1.719-1.535,3.094
		c0,0.797,0.168,1.453,0.504,1.969s0.793,0.941,1.371,1.277s1.242,0.605,1.992,0.809s1.547,0.391,2.391,0.563
		c1.328,0.281,2.598,0.605,3.809,0.973s2.285,0.879,3.223,1.535s1.68,1.512,2.227,2.566c0.547,1.055,0.82,2.402,0.82,4.043
		c0,1.688-0.313,3.148-0.938,4.383s-1.512,2.254-2.66,3.059s-2.543,1.402-4.184,1.793s-3.438,0.586-5.391,0.586
		c-1.703,0-3.379-0.168-5.027-0.504s-3.02-0.809-4.113-1.418v-4.852c1.547,0.672,3.055,1.16,4.523,1.465s2.984,0.457,4.547,0.457
		c0.906,0,1.797-0.074,2.672-0.223s1.66-0.402,2.355-0.762s1.254-0.848,1.676-1.465S164.82,37.565,164.82,36.659z"/>
	<path id="small-l" style="fill:#3A3A3A;" d="M175.022,45.659V15.964h4.86v29.695H175.022z"/>
	<path id="small-i" style="fill:#3A3A3A;" d="M182.27,15.964h5.106v5.271h-5.106V15.964z M182.393,25.787h4.86v19.872h-4.86V25.787z
		"/>
	<path id="small-b" style="fill:#3A3A3A;" d="M208.651,35.385c0,1.791-0.26,3.377-0.779,4.758s-1.2,2.516-2.04,3.404
		c-0.842,0.889-1.788,1.548-2.841,1.979c-1.053,0.43-2.112,0.646-3.179,0.646c-0.752,0-1.429-0.093-2.03-0.276
		c-0.602-0.186-1.128-0.414-1.579-0.688s-0.83-0.561-1.139-0.861c-0.307-0.301-0.55-0.567-0.728-0.8h-0.082l-0.472,2.112h-4.02
		c0.027-0.588,0.051-1.315,0.072-2.184c0.02-0.868,0.03-1.692,0.03-2.472v-25.04h4.86v8.265c0,0.588-0.004,1.132-0.01,1.63
		c-0.008,0.5-0.018,0.886-0.031,1.159h0.041c0.314-0.219,0.656-0.431,1.025-0.636s0.772-0.39,1.21-0.554s0.909-0.294,1.415-0.39
		s1.039-0.144,1.6-0.144c1.107,0,2.184,0.202,3.23,0.604c1.045,0.404,1.975,1.02,2.789,1.846c0.813,0.828,1.459,1.887,1.938,3.18
		C208.412,32.216,208.651,33.703,208.651,35.385z M203.627,35.631c0-1.244-0.15-2.313-0.451-3.21
		c-0.301-0.895-0.694-1.578-1.18-2.051c-0.485-0.471-0.991-0.789-1.518-0.953s-1.049-0.246-1.568-0.246
		c-0.711,0-1.436,0.144-2.174,0.431s-1.408,0.67-2.01,1.148v9.516c0.191,0.219,0.427,0.448,0.707,0.687
		c0.28,0.24,0.596,0.459,0.943,0.656c0.35,0.199,0.729,0.363,1.139,0.492c0.41,0.131,0.848,0.195,1.313,0.195
		c0.793,0,1.486-0.16,2.082-0.482c0.594-0.32,1.093-0.775,1.496-1.363s0.708-1.288,0.913-2.102S203.627,36.629,203.627,35.631z"/>
</g>
<g id="XMLID_97_">
</g>
<g id="XMLID_118_">
</g>
<g id="XMLID_124_">
</g>
<g id="XMLID_175_">
</g>
<g id="XMLID_176_">
</g>
<g id="XMLID_177_">
</g>
<g id="XMLID_178_">
</g>
<g id="XMLID_179_">
</g>
<g id="XMLID_180_">
</g>
<g id="XMLID_181_">
</g>
<g id="XMLID_182_">
</g>
<g id="XMLID_183_">
</g>
<g id="XMLID_184_">
</g>
<g id="XMLID_185_">
</g>
<g id="XMLID_186_">
</g>
</svg>
